<svg id="Capa_1" data-name="Capa 1" xmlns="http://www.w3.org/2000/svg" viewBox="0 0 50 37"><defs><style>.cls-1{fill:#005076;}</style></defs><title>social</title><circle class="cls-1" cx="25" cy="20.51" r="9"/><rect class="cls-1" x="6" y="2" width="4" height="2"/><path class="cls-1" d="M469.17,1062.87h-8.93a2,2,0,0,1-1.66-.89l-2.81-4.22a2,2,0,0,0-1.66-.89H440.24a2,2,0,0,0-1.66.89l-2.81,4.22a2,2,0,0,1-1.66.89h-8.93a3,3,0,0,0-3,3v25a3,3,0,0,0,3,3h44a3,3,0,0,0,3-3v-25A3,3,0,0,0,469.17,1062.87Zm-22,26.51a12,12,0,1,1,12-12A12,12,0,0,1,447.17,1089.37Zm15-22a1,1,0,0,1-1,1h0a1,1,0,0,1-1-1v0a1,1,0,0,1,1-1h0a1,1,0,0,1,1,1v0Z" transform="translate(-422.17 -1056.87)"/></svg>