<svg id="Capa_1" data-name="Capa 1" xmlns="http://www.w3.org/2000/svg" viewBox="0 0 152.78 152.78"><defs><style>.cls-1{fill:#f6b63e;}.cls-2{fill:#add6e9;}.cls-3{fill:#005076;}</style></defs><title>gobutton</title><path class="cls-1" d="M403.21,964.43A71.39,71.39,0,1,1,331.82,893a71.39,71.39,0,0,1,71.39,71.39" transform="translate(-255.43 -888.04)"/><path class="cls-2" d="M331.82,1040.82a76.39,76.39,0,1,1,76.39-76.39A76.47,76.47,0,0,1,331.82,1040.82Zm0-142.78a66.39,66.39,0,1,0,66.39,66.39A66.46,66.46,0,0,0,331.82,898Z" transform="translate(-255.43 -888.04)"/><path class="cls-3" d="M314.23,956.12a11.23,11.23,0,0,0-8.07-3.05,10.76,10.76,0,0,0-7.92,2.88q-2.9,2.88-2.9,8.39a13,13,0,0,0,.57,3.81,12.37,12.37,0,0,0,1.77,3.54,8.32,8.32,0,0,0,3.4,2.71,12.07,12.07,0,0,0,5.09,1,11.85,11.85,0,0,0,7.33-2.41v-5.51h-8.22v-6.4h14.86v15q-4.48,6.4-14,6.4a21.32,21.32,0,0,1-8.41-1.55,14.27,14.27,0,0,1-5.73-4.18,18.5,18.5,0,0,1-3.12-5.78,22.17,22.17,0,0,1,.07-13.61,17.9,17.9,0,0,1,3.3-5.81A14.78,14.78,0,0,1,298,947.5a21.33,21.33,0,0,1,8.17-1.48A17.19,17.19,0,0,1,319,951.34Z" transform="translate(-255.43 -888.04)"/><path class="cls-3" d="M356.21,977.47q-5.12,4.87-13.48,4.87t-13.48-4.87q-5.12-4.87-5.12-13.19t5.12-13.19q5.12-4.87,13.48-4.87t13.48,4.87q5.12,4.87,5.12,13.19T356.21,977.47Zm-5.49-21.18a11.6,11.6,0,0,0-16,0,11,11,0,0,0-3.1,8,10.88,10.88,0,0,0,3.1,8,11.79,11.79,0,0,0,16,0A12,12,0,0,0,350.72,956.29Z" transform="translate(-255.43 -888.04)"/><path class="cls-3" d="M367.41,974.23a4.34,4.34,0,0,1,6,0,4,4,0,0,1,1.35,3.2,4,4,0,0,1-1.35,3.17,4.41,4.41,0,0,1-6,0,4,4,0,0,1-1.35-3.17A4,4,0,0,1,367.41,974.23ZM374.17,947L374,971h-7.28q0-4-.07-12t-0.07-12h7.63Z" transform="translate(-255.43 -888.04)"/></svg>