<svg id="Capa_1" data-name="Capa 1" xmlns="http://www.w3.org/2000/svg" viewBox="0 0 52.3 52.3"><defs><style>.cls-1{fill:#bfe3f0;}</style></defs><title>icon_other</title><path class="cls-1" d="M545.49,924.93a26.15,26.15,0,1,0,26.15,26.15A26.15,26.15,0,0,0,545.49,924.93Zm-12.75,15c8-4.11,12.75,2.27,12.75,2.27s4.78-6.38,12.75-2.27c4.44,2.29,4.51,8.1,1.18,14.14h-8.33l-1.91-7a0.9,0.9,0,0,0-.83-0.66,0.88,0.88,0,0,0-.89.59l-3.74,10-2.68-8.09a0.9,0.9,0,0,0-.8-0.62,0.91,0.91,0,0,0-.87.51l-2.54,5.26h-5.28C528.23,948,528.31,942.24,532.74,940Zm12.75,27.36a35.36,35.36,0,0,1-12.84-11.41h4.75a0.9,0.9,0,0,0,.81-0.51l1.82-3.76,2.78,8.4a0.9,0.9,0,0,0,.84.62h0a0.9,0.9,0,0,0,.85-0.59l3.66-9.77,1.35,4.95a0.9,0.9,0,0,0,.87.67h7.93A35.37,35.37,0,0,1,545.49,967.31Z" transform="translate(-519.34 -924.93)"/></svg>