<svg id="Capa_1" data-name="Capa 1" xmlns="http://www.w3.org/2000/svg" viewBox="0 0 61.27 64.95"><defs><style>.cls-1{fill:#add6e9;}</style></defs><title>icon_weight</title><path class="cls-1" d="M552.9,725.9a6.78,6.78,0,1,1-6.78-6.78,6.78,6.78,0,0,1,6.78,6.78" transform="translate(-515.49 -708.33)"/><path class="cls-1" d="M575,712.08a1.71,1.71,0,0,0-1.33.64v-1.14a1.72,1.72,0,0,0-3.28-.71V710a1.71,1.71,0,1,0-3.43,0v5.35h-6.33a2.37,2.37,0,0,0-4.36,0H535.93a2.37,2.37,0,0,0-4.36,0h-6.32V710a1.72,1.72,0,0,0-3.43,0v0.81a1.72,1.72,0,0,0-3.27.71v1.14a1.71,1.71,0,0,0-3.05,1.07v6.65a1.71,1.71,0,0,0,3.05,1.07v1.14a1.71,1.71,0,0,0,3.27.71v0.81a1.72,1.72,0,0,0,3.43,0v-5.35h5.91c-0.23,4.29-.18,11.86,2.69,15a19.19,19.19,0,0,0,6.11,4.47v12.14a15.21,15.21,0,0,0-8.4,5.9c-3.08,4.11-3.17,12.19-3.16,13.77a3.19,3.19,0,0,0,3.19,3.17h0a3.19,3.19,0,0,0,3.17-3.22c0-2.94.56-8.12,1.89-9.89,1.89-2.52,4.14-4.09,9.47-4.11s7.57,1.58,9.47,4.11c1.33,1.77,1.91,6.95,1.89,9.89a3.19,3.19,0,0,0,3.16,3.22h0a3.19,3.19,0,0,0,3.19-3.17c0-1.58-.08-9.66-3.16-13.77a15.21,15.21,0,0,0-8.4-5.9V738.31a19.2,19.2,0,0,0,6.11-4.47c2.87-3.15,2.92-10.72,2.69-15H567v5.35a1.71,1.71,0,1,0,3.43,0v-0.81a1.71,1.71,0,0,0,3.28-.71v-1.14a1.71,1.71,0,0,0,3-1.08v-6.65a1.71,1.71,0,0,0-1.72-1.71m-20.18,18.54a17.57,17.57,0,0,1-4.24,3.19,43.24,43.24,0,0,0-4.5-.37,36.51,36.51,0,0,0-4.5.37,13.63,13.63,0,0,1-4.24-3.19c-1.31-1.43-1.72-6.82-1.43-11.78h20.34c0.29,5-.12,10.35-1.43,11.78" transform="translate(-515.49 -708.33)"/></svg>