<svg id="Capa_1" data-name="Capa 1" xmlns="http://www.w3.org/2000/svg" viewBox="0 0 50.31 54.57"><defs><style>.cls-1{fill:#add6e9;}</style></defs><title>icon_yoga</title><path class="cls-1" d="M546.43,836.35h0.05a7.67,7.67,0,1,0,0-15.34h-0.05a7.67,7.67,0,1,0,0,15.34" transform="translate(-521.13 -821.01)"/><path class="cls-1" d="M569.83,854.54l-10.51-7.64L556,838.79a3.92,3.92,0,0,0-3.71-2.43h-12a3.92,3.92,0,0,0-3.71,2.43l-3.32,8.11-10.51,7.64a3.92,3.92,0,1,0,4.61,6.34l11.36-8.26-0.29,3L527.68,866.5a5.37,5.37,0,0,0,3.87,9.08h5.14a6.7,6.7,0,0,1-2.17-5,6.33,6.33,0,0,1,6.1-6.53h5.85a5.45,5.45,0,0,1,3.44,1.57h-9.28a5,5,0,0,0,0,9.92h9l0.3,0h10.87a5.37,5.37,0,0,0,3.87-9.08l-10.51-10.9h0l-0.28-2.94,11.36,8.26a3.92,3.92,0,1,0,4.61-6.34" transform="translate(-521.13 -821.01)"/></svg>