<svg id="Capa_1" data-name="Capa 1" xmlns="http://www.w3.org/2000/svg" viewBox="0 0 65.18 65.79"><defs><style>.cls-1{fill:#add6e9;}</style></defs><title>icon_running</title><path class="cls-1" d="M558,411.09a7.67,7.67,0,1,0-7.67-7.67,7.67,7.67,0,0,0,7.67,7.67" transform="translate(-512.83 -395.75)"/><path class="cls-1" d="M570.6,408.88c-4.41,6.17-10.3,6.89-16.65,3.12-0.43-.26-2.35-1.31-2.77-1.56-10.21-6.06-20.41-3.68-27.25,5.89-2.91,4.07,3.82,7.94,6.69,3.91,3.53-5,8-6.38,12.94-4.81-2.52,4.37-4.72,8.71-7.82,14.88s-10,11.09-16.55,7.24c-4.75-2.78-9,4-4.3,6.82a19.44,19.44,0,0,0,24.92-4.8,4.15,4.15,0,0,0,.6.27c4.4,1.53,10.16,5.61,11.92,7.06s4.77,8.81,6.56,12.51c2.17,4.49,9.19,1.22,7-3.29-2-4.2-5.44-12.58-8.1-14.7a67,67,0,0,0-9.79-6.66q3.56-6.9,7.46-13.63c8.3,2.54,16.19-.45,21.81-8.32,2.91-4.07-3.81-7.94-6.69-3.91" transform="translate(-512.83 -395.75)"/></svg>