<svg id="Capa_1" data-name="Capa 1" xmlns="http://www.w3.org/2000/svg" viewBox="0 0 39.37 54.25"><defs><style>.cls-1{fill:#add6e9;}</style></defs><title>icon_crossfit</title><path class="cls-1" d="M560.79,639.28a12.61,12.61,0,0,0,4.08-9.26v-3.6A12.81,12.81,0,0,0,552,613.7H539a12.81,12.81,0,0,0-12.86,12.72V630a12.61,12.61,0,0,0,4.08,9.26,19.67,19.67,0,0,0,4.27,28.67h22.08A19.67,19.67,0,0,0,560.79,639.28Zm-26.6-3.75a7.13,7.13,0,0,1-2.65-5.52v-3.6A7.33,7.33,0,0,1,539,619.2h13a7.33,7.33,0,0,1,7.42,7.22V630a7.13,7.13,0,0,1-2.65,5.52A19.62,19.62,0,0,0,534.19,635.53Zm26.27,12.59c-1-6.61-5.49-11.69-10.94-13a13.76,13.76,0,0,1,12.12,11.78,14,14,0,0,1-1.93,9.41A17,17,0,0,0,560.46,648.12Z" transform="translate(-525.8 -613.7)"/></svg>