<svg id="Capa_1" data-name="Capa 1" xmlns="http://www.w3.org/2000/svg" viewBox="0 0 69.22 44"><defs><style>.cls-1{fill:#add6e9;}</style></defs><title>icon_swimming</title><path class="cls-1" d="M511.95,550.16a10.2,10.2,0,0,1,6.72,3.26c2.24,2.41,4.27,2.5,6.74,0a12.32,12.32,0,0,1,17.4,0c2.49,2.55,4.44,2.35,6.73,0,4.58-4.76,13-4.8,17.39,0,2.31,2.56,4.61,2.59,7,0a10.3,10.3,0,0,1,7.23-3.26v7.21c-1.6,1.3-3,2.61-4.59,3.72a10.68,10.68,0,0,1-13.95-1.36c-2.81-3.19-6.38-2.72-8.83,0-3.66,4.11-11.69,4.13-15.32,0-2.64-3-6.22-3-8.78,0-3.33,3.93-11.26,3.95-14.8.6a31.21,31.21,0,0,0-3-2.22v-7.94Z" transform="translate(-511.95 -519.03)"/><path class="cls-1" d="M524.42,551.31c0.5-3.46,1.77-6.07,4.77-7.25,5.44-2.15,11-4.08,16.62-6.17-0.18-1.21-.37-2.62-0.6-4a11.1,11.1,0,0,1,2.06-8.43c3.15-4.38,7.75-6.09,13-6.4,2.1-.12,3.38,1.48,3.59,3.43a3.76,3.76,0,0,1-3.16,3.89c-2.53.45-5,1.07-6.81,3.1a4.36,4.36,0,0,0-1,4.55c1.12,3.6,2.15,7.24,3.17,10.87,0.68,2.41.47,2.82-1.85,3.55a14.69,14.69,0,0,0-6.43,4c-1.07,1.13-2,1.19-3.08,0A14.48,14.48,0,0,0,536,548,13.89,13.89,0,0,0,526,550.33l-1.55,1" transform="translate(-511.95 -519.03)"/><path class="cls-1" d="M565.61,547.41c-5.58-.3-9-4-9-9.06a9.09,9.09,0,0,1,18.18,0c-0.07,5.28-3.57,8.83-9.15,9.09" transform="translate(-511.95 -519.03)"/></svg>