<?xml version="1.0" encoding="iso-8859-1"?>
<!-- Generator: Adobe Illustrator 18.1.1, SVG Export Plug-In . SVG Version: 6.00 Build 0)  -->
<svg xmlns="http://www.w3.org/2000/svg" xmlns:xlink="http://www.w3.org/1999/xlink" version="1.1" id="Capa_1" x="0px" y="0px" viewBox="0 0 12.946 12.946" style="enable-background:new 0 0 12.946 12.946;" xml:space="preserve" width="512px" height="512px">
<g>
	<g>
		<path d="M11.536,2.072H1.41C0.633,2.072,0,2.727,0,3.531v5.884c0,0.805,0.632,1.459,1.41,1.459h10.126    c0.777,0,1.41-0.654,1.41-1.459V3.531C12.946,2.727,12.313,2.072,11.536,2.072z M11.972,9.416c0,0.268-0.195,0.486-0.437,0.486    H1.41c-0.241,0-0.437-0.219-0.437-0.486V3.532c0-0.268,0.196-0.486,0.437-0.486h10.126c0.241,0,0.437,0.218,0.437,0.486v5.884    H11.972z" fill="#add6e9"/>
		<path d="M10.871,3.317L8.959,4.463l0,0L6.546,5.91L4.352,4.679c0,0,0,0-0.001,0L1.912,3.31    C1.678,3.178,1.381,3.262,1.25,3.496C1.118,3.73,1.202,4.027,1.436,4.159L3.47,5.3L1.971,8.259    C1.849,8.499,1.945,8.79,2.185,8.911c0.239,0.123,0.532,0.027,0.654-0.213l1.48-2.922l1.997,1.122    c0.038,0.021,0.078,0.037,0.118,0.047c0.013,0.002,0.024,0.002,0.037,0.004c0.027,0.006,0.056,0.012,0.083,0.012    c0.002,0,0.003,0,0.004,0c0.028-0.002,0.056-0.008,0.083-0.012C6.656,6.945,6.67,6.945,6.685,6.943    c0.042-0.012,0.082-0.029,0.12-0.053L8.97,5.592l1.228,3.067c0.076,0.189,0.259,0.307,0.451,0.307    c0.061,0,0.122-0.012,0.181-0.035c0.25-0.102,0.371-0.385,0.271-0.633L9.815,5.085l1.557-0.934    c0.23-0.138,0.306-0.437,0.167-0.667C11.4,3.254,11.1,3.18,10.871,3.317z" fill="#add6e9"/>
	</g>
</g>
<g>
</g>
<g>
</g>
<g>
</g>
<g>
</g>
<g>
</g>
<g>
</g>
<g>
</g>
<g>
</g>
<g>
</g>
<g>
</g>
<g>
</g>
<g>
</g>
<g>
</g>
<g>
</g>
<g>
</g>
</svg>
