<svg id="Capa_1" data-name="Capa 1" xmlns="http://www.w3.org/2000/svg" viewBox="0 0 50 38.17"><defs><style>.cls-1{fill:rgba(107,193,220,1);}</style></defs><title>levels</title><path class="cls-1" d="M47.69,1056.9v17.28a0.86,0.86,0,0,0,1.73,0V1056.9a0.86,0.86,0,1,0-1.73,0" transform="translate(-38.83 -1056.04)"/><path class="cls-1" d="M49.42,1093.35v-5.67a0.86,0.86,0,0,0-1.73,0v5.67a0.86,0.86,0,0,0,1.73,0" transform="translate(-38.83 -1056.04)"/><path class="cls-1" d="M64.77,1062.08v-5.18a0.86,0.86,0,1,0-1.73,0v5.18a0.86,0.86,0,0,0,1.73,0" transform="translate(-38.83 -1056.04)"/><path class="cls-1" d="M64.77,1093.35V1075.9a0.86,0.86,0,0,0-1.73,0v17.44a0.86,0.86,0,0,0,1.73,0" transform="translate(-38.83 -1056.04)"/><path class="cls-1" d="M79.09,1056a0.87,0.87,0,0,0-.87.87V1071a0.87,0.87,0,0,0,1.73,0V1056.9a0.87,0.87,0,0,0-.86-0.87" transform="translate(-38.83 -1056.04)"/><path class="cls-1" d="M80,1093.35v-8.59a0.87,0.87,0,0,0-1.73,0v8.59a0.87,0.87,0,0,0,1.73,0" transform="translate(-38.83 -1056.04)"/><path class="cls-1" d="M53.79,1086a4.5,4.5,0,0,0,0-9H43.33a4.5,4.5,0,1,0,0,9H53.79Zm-13.23-4.5a2.77,2.77,0,0,1,2.77-2.77H53.79a2.77,2.77,0,1,1,0,5.54H43.33a2.78,2.78,0,0,1-2.77-2.77" transform="translate(-38.83 -1056.04)"/><path class="cls-1" d="M73.63,1069.21a4.51,4.51,0,0,0-4.5-4.51H58.67a4.5,4.5,0,0,0,0,9H69.13a4.51,4.51,0,0,0,4.5-4.5m-4.5,2.77H58.67a2.77,2.77,0,0,1,0-5.55H69.13a2.77,2.77,0,1,1,0,5.55" transform="translate(-38.83 -1056.04)"/><path class="cls-1" d="M84.32,1073.34H73.86a4.5,4.5,0,0,0,0,9H84.32a4.5,4.5,0,1,0,0-9m0,7.28H73.86a2.77,2.77,0,0,1,0-5.55H84.32a2.77,2.77,0,1,1,0,5.55" transform="translate(-38.83 -1056.04)"/></svg>
