<svg id="Capa_1" data-name="Capa 1" xmlns="http://www.w3.org/2000/svg" viewBox="0 0 48.01 48.01"><defs><style>.cls-1{fill:#add6e9;}</style></defs><title>icon3</title><path class="cls-1" d="M74.67,427.2a20.2,20.2,0,1,1-20.2,20.2,20.22,20.22,0,0,1,20.2-20.2m0-3.81a24,24,0,1,0,24,24,24,24,0,0,0-24-24" transform="translate(-50.67 -423.39)"/><path class="cls-1" d="M75.09,449.22a11.68,11.68,0,0,1,11.79,8,2.24,2.24,0,0,1-1.34,3c-0.7.24-2-.59-2.73-1.28-1-1-1.57-2.55-2.62-3.53-4-3.75-9.76-1.88-12.06,3-1.1,2.31-2.71,2.95-3.75,1.41a4.65,4.65,0,0,1-.17-3.65c1.25-3.46,6.13-7.75,10.87-7" transform="translate(-50.67 -423.39)"/><path class="cls-1" d="M83.11,435.41c2.57-.26,4.18,1,4.42,3.95a4.07,4.07,0,0,1-4.3,4.14c-2.8,0-4.27-1.45-4.24-4.14s1.49-4,4.12-4" transform="translate(-50.67 -423.39)"/><path class="cls-1" d="M71.38,439.58c0,2.52-1.52,4-4.12,3.93s-4-1.53-4-4.38q0-3.74,4.27-3.7c2.58,0,3.83,1.39,3.81,4.16" transform="translate(-50.67 -423.39)"/></svg>