<svg id="Capa_1" data-name="Capa 1" xmlns="http://www.w3.org/2000/svg" viewBox="0 0 428.44 143.21"><defs><style>.cls-1{fill:#add6e9;}</style></defs><title>logo</title><path class="cls-1" d="M509.82,156.64a22.66,22.66,0,0,0-19.22,9.91l-2-8.26H454.28v-0.08H437.61V136.74l-27.48,3v18.47H383.45V136.74l-27.48,3v18.47H344.11v16.08c-8-9.63-20.79-14.08-34.2-14.08-14.22,0-28.16,5-36,16.36-5.48-9.67-15.24-15.21-28.81-16.14-8.26-.45-18.17,2.1-24.47,9.46l-1.2-8H184.68V136.6c-12-9.46-24.33-12.61-39.49-12.61-20.27,0-44.3,9.91-44.3,33,0,26,21.77,32,43.09,33.93,11.56,1.2,17.72,3.9,17.72,9,0,6-6.76,9.46-16.67,9.46a51.11,51.11,0,0,1-18-3.3L126.57,194H100.9v26.28c13.21,11.11,26.88,14.72,44,14.57,23.72-.15,46.4-10.51,46.4-34.23,0-7.77-2.2-13.74-5.85-18.36h9.38v64.42H184.61V267.2H233V246.62H222.45V229.81c4.05,5,11.11,8,20.72,8,13.68,0,24.41-6.44,30.45-16.9,7.77,11.68,22,17,36.29,17,20.87,0,42.34-11.71,42.34-38.74a40.21,40.21,0,0,0-4.68-19.72H356v24.33c-0.45,23.27,12.76,30,27.48,30,7.66,0,15-1.35,21.32-5l-6-20.42a15.66,15.66,0,0,1-8.11,2.55c-4.2,0-7.21-2-7.36-7.21V179.38h26.83v24.33c-0.45,23.27,12.76,30,27.48,30,7.66,0,15-1.35,21.32-5l-6-20.42a15.66,15.66,0,0,1-8.11,2.55c-4.2,0-7.21-2-7.36-7.21V179.38h26.71v33L455.61,207l6.26,20.6c17.42-5.68,24.37,5.21,40.44,5.21V212.34H491.8V196.73c0-9.31,4.2-14.87,14-15a20.84,20.84,0,0,1,12.76,4.05l10.81-21.17C524.83,159.64,518.07,156.64,509.82,156.64ZM148.35,167.08c-10.51-1.05-17.72-3-17.72-10.06s9-8.86,14.57-8.86a47.26,47.26,0,0,1,13.36,1.65L159,162h25.6v19.24C176.43,171.86,162,168.48,148.35,167.08Zm88.36,48.31c-9.76,0-14.87-8.11-14.87-17.27,0-7.81,5.71-15.47,14.87-15.47,8.26,0,15,6,15,16.37S245,215.39,236.71,215.39Zm73.19-.23c-9.76,0-15.32-7.51-15.32-16.07s5.56-16.22,15.32-16.22,15.32,7.66,15.32,16.22C325.22,208.11,319.21,215.17,309.9,215.17Z" transform="translate(-100.9 -123.99)"/></svg>