<svg id="Capa_1" data-name="Capa 1" xmlns="http://www.w3.org/2000/svg" viewBox="0 0 661.23 195.78"><defs><style>.cls-1{fill:#004865;}.cls-2{fill:#003e59;}.cls-3{fill:#add6e9;}.cls-4{fill:#0093c2;}.cls-5{fill:#005076;fill-rule:evenodd;}</style></defs><title>logohome</title><path class="cls-1" d="M-9.54,447c0,11.63,6.91,21.65,15.61,22.39l233.62,19.86c15.4,1.3,28.25-10.61,28.25-26.66V349.14c0-16-12.85-28-28.25-26.66L6.06,342.34c-8.7.74-15.61,10.76-15.61,22.4V447Z" transform="translate(9.54 -313.39)"/><path class="cls-2" d="M243.92,398L-9.54,415.59V444.4c0,10.9,7,20.28,15.89,21L243.92,484V423c0-15,15.68-26.2,0-25" transform="translate(9.54 -313.39)"/><path class="cls-1" d="M650.89,447c0,11.63-6.91,21.65-15.6,22.39L401.67,489.26c-15.4,1.3-28.24-10.61-28.24-26.66V349.14c0-16,12.84-28,28.24-26.66l233.62,19.86c8.7,0.74,15.6,10.76,15.6,22.4V447Z" transform="translate(9.54 -313.39)"/><path class="cls-2" d="M397.45,425.65l254.24-10.06V444.4c0,10.9-7.06,20.28-15.94,21L397.45,484V450.63c0-15-15.73-26.2,0-25" transform="translate(9.54 -313.39)"/><path class="cls-3" d="M418.86,411.28A97.89,97.89,0,1,1,321,313.39a97.89,97.89,0,0,1,97.89,97.89" transform="translate(9.54 -313.39)"/><path class="cls-4" d="M341.48,346.89a51.07,51.07,0,0,0-38.19-6l-0.62.14h0l-0.61.17a51.26,51.26,0,0,0-13.68,93.48s33.17,19.59,48.21,51a76.24,76.24,0,0,1,5.32,14.68l0-.08,0,0.08a76.27,76.27,0,0,1-2.11-15.47c-1.26-34.78,19-67.54,19-67.54a51.25,51.25,0,0,0-17.34-70.39" transform="translate(9.54 -313.39)"/><path class="cls-5" d="M266,374.4l0.67,0.11a4.4,4.4,0,0,1,3.83,4.66l-5.4,44.14c-0.26,2.23-3.37,3.71-6.92,3.13l-1-.17c-3.54-.6-6-3-5.55-5.21l9.21-43.5A4.42,4.42,0,0,1,266,374.4" transform="translate(9.54 -313.39)"/><path class="cls-5" d="M291.14,396.54a129.47,129.47,0,0,0,47-11.64l4.6,10a140.53,140.53,0,0,1-51,12.63l-0.6-11" transform="translate(9.54 -313.39)"/><path class="cls-5" d="M283.43,375.93q-2.93,0-5.86-.19a4.4,4.4,0,0,0-4.74,3.71l-4.46,44.25c-0.24,2.23,2.47,4.36,6,4.58q4.35,0.26,8.7.29c3.55,0,6.37-1.92,6.28-4.16l-1.49-44.44a4.37,4.37,0,0,0-4.45-4" transform="translate(9.54 -313.39)"/><path class="cls-5" d="M383,350.73q-1.9,2.26-3.89,4.42l8.09,7.47q2.16-2.34,4.22-4.79L383,350.73" transform="translate(9.54 -313.39)"/><path class="cls-5" d="M252.2,379.72l0.71,0.2c2.51,0.7,4.17,3,3.68,5.16l-6.38,27.23c-0.49,2.19-3.64,3.35-7,2.42l-0.93-.26c-3.32-.94-5.43-3.59-4.71-5.71l8.75-26.56c0.72-2.13,3.35-3.18,5.85-2.47" transform="translate(9.54 -313.39)"/><path class="cls-5" d="M350.06,353.57l-0.54.41a4.4,4.4,0,0,0-1.21,5.91l25.38,36.52c1.27,1.85,4.72,1.71,7.58-.46l0.8-.61c2.85-2.18,3.93-5.49,2.48-7.2L356.09,354a4.42,4.42,0,0,0-6-.4" transform="translate(9.54 -313.39)"/><path class="cls-5" d="M335.33,363.07q2.58-1.38,5.09-2.91a4.39,4.39,0,0,1,5.92,1.07l24.6,37c1.26,1.86-.15,5-3.19,6.86q-3.73,2.26-7.56,4.32c-3.12,1.68-6.53,1.27-7.49-.75l-19.43-40a4.37,4.37,0,0,1,2.06-5.63" transform="translate(9.54 -313.39)"/><path class="cls-5" d="M364.71,351.85l-0.54.51c-1.89,1.79-2.3,4.57-.84,6.27l18.35,21.11c1.46,1.7,4.78,1.27,7.29-1.1l0.7-.67c2.5-2.39,3.13-5.71,1.51-7.26L371,351.31c-1.63-1.55-4.45-1.26-6.33.55" transform="translate(9.54 -313.39)"/><path class="cls-5" d="M241,389.34q-2.76-1-5.5-2.09l-4.14,10.2q3,1.21,6,2.27L241,389.34" transform="translate(9.54 -313.39)"/></svg>